<?xml version="1.0"?>
<svg width="214.727" height="48.081" xmlns="http://www.w3.org/2000/svg" xmlns:svg="http://www.w3.org/2000/svg" xmlns:se="http://svg-edit.googlecode.com">
 <defs>
  <style>.cls-1 {
        fill: #fff;
      }</style>
 </defs>
 <g class="layer">
  <title>Layer 1</title>
  <g data-name="Group 1480" id="Group_1480">
   <path class="cls-1" d="m-4201.38423,58.997999c-4.728,-1.5 -8.757,-2.794 -8.757,-5.426c0,0 -0.161,-3.868 5.587,-3.868a19.956,19.956 0 0 1 6.93,1.5l0,0c6.232,2.471 8.81,-2.417 9.563,-4.513a1.331,1.331 0 0 0 -0.376,-1.5a13.061,13.061 0 0 0 -3.814,-2.364a31.347,31.347 0 0 0 -12.085,-2.578c-9.831,0 -16.654,5.909 -16.654,14.344l0,0.156c0,10.476 14.612,13.914 15.526,14.075c0.054,0 0.054,0 0.107,0.054c4.513,1.343 8.434,2.579 8.434,5.265c0,0 0.161,4.3 -6.285,4.3a21.082,21.082 0 0 1 -9.724,-2.579c-5.695,-2.256 -8.434,2.256 -9.294,4.19a1.312,1.312 0 0 0 0.322,1.5c0.322,0.269 0.7,0.645 1.289,1.074a31.681,31.681 0 0 0 17.137,5.265c10.691,0 17.352,-5.641 17.352,-14.774l0,-0.161c0.052,-9.34 -15.258,-13.96 -15.258,-13.96z" data-name="Path 258" id="Path_258" transform="translate(-80.2, -0.185)"/>
   <path class="cls-1" d="m-4042.38423,58.948999c-4.728,-1.5 -8.757,-2.794 -8.757,-5.426c0,0 -0.161,-3.868 5.587,-3.868a19.956,19.956 0 0 1 6.93,1.5l0,0c6.232,2.471 8.81,-2.417 9.562,-4.513a1.331,1.331 0 0 0 -0.376,-1.5a13.061,13.061 0 0 0 -3.814,-2.364a30.47,30.47 0 0 0 -12.084,-2.629c-9.831,0 -16.654,5.909 -16.654,14.344l0,0.156c0,10.476 14.612,13.914 15.526,14.075c0.054,0 0.054,0 0.107,0.054c4.513,1.343 8.434,2.579 8.434,5.265c0,0 0.161,4.3 -6.285,4.3a21.082,21.082 0 0 1 -9.724,-2.579c-5.695,-2.256 -8.434,2.256 -9.294,4.19a1.312,1.312 0 0 0 0.322,1.5c0.322,0.269 0.7,0.645 1.289,1.074a31.681,31.681 0 0 0 17.137,5.265c10.691,0 17.352,-5.641 17.352,-14.774l0,-0.161c-0.001,-9.286 -15.258,-13.909 -15.258,-13.909z" data-name="Path 259" id="Path_259" transform="translate(-153.782, -0.139)"/>
   <path class="cls-1" d="m-4282.11623,39.848999a16.246,16.246 0 0 0 -10.583,3.761a8.574,8.574 0 0 0 -1.021,0.86a1.562,1.562 0 0 1 -2.256,-0.215c-0.215,-0.322 -0.43,-0.591 -0.645,-0.86c-2.149,-3.224 -6.715,-3.331 -8.972,-3.17a1.462,1.462 0 0 0 -1.343,1.451l0.054,44.052a1.458,1.458 0 0 0 1.289,1.45c3.008,0.215 10.207,0 10.207,-7.629l0,-18.587c0,-6.339 3.653,-10.422 9.348,-10.422s8.864,3.653 8.864,10.261l0,24.927a1.462,1.462 0 0 0 1.343,1.45c3.008,0.215 10.207,-0.161 10.207,-7.629l0,-21.864c0.054,-11.013 -6.285,-17.836 -16.492,-17.836z" data-name="Path 260" id="Path_260" transform="translate(-41.049)"/>
   <path class="cls-1" d="m-4110.82623,68.159999a5.5,5.5 0 0 0 5.533,-5.587c0,-11.013 -7.736,-22.724 -22.026,-22.724c-12.893,0 -22.617,10.315 -22.617,23.96l0,0.215c0,13.86 9.992,23.906 23.745,23.906a24.09,24.09 0 0 0 14.236,-4.244a16.24,16.24 0 0 0 3.062,-2.955a1.457,1.457 0 0 0 0.054,-1.665c-1.182,-1.827 -4.459,-5.695 -9.079,-3.116a16.457,16.457 0 0 1 -8.112,2.256c-6.285,0 -10.852,-3.814 -12.087,-9.992l27.291,0l0,-0.054zm-27.4,-8.112l0,-0.107l0,0c1.128,-6.285 5.318,-10.315 10.8,-10.315c5.963,0 9.079,4.083 10.261,8.6a1.442,1.442 0 0 1 -1.4,1.773l-19.661,0.049z" data-name="Path 261" id="Path_261" transform="translate(-113.705)"/>
   <path class="cls-1" d="m-4359.42723,45.659999c-3.277,-3.384 -8.488,-5.211 -15.096,-5.211a38.475,38.475 0 0 0 -13.162,2.2a21.164,21.164 0 0 0 -4.244,2.2a1.453,1.453 0 0 0 -0.591,1.665c0.752,2.2 3.116,6.984 9.724,5.1l0,0a26.035,26.035 0 0 1 6.93,-0.913c4.351,0 9.509,1.4 10.153,7.629c0,0 -4.889,-0.107 -9.939,0c-11.818,0.277 -19.984,5.649 -19.984,15.104l0,0.161c0,9.939 8.434,14.5 16.278,14.5c6.876,0 10.906,-2.74 12.732,-4.459a1.388,1.388 0 0 1 2.1,0.269c2.256,3.223 6.447,3.546 8.6,3.492a1.434,1.434 0 0 0 1.4,-1.45l0.054,-26c-0.013,-6.229 -1.678,-11.01 -4.955,-14.287zm-17.084,33.63c-4.781,0 -7.9,-2.364 -7.9,-6.071l0,-0.161c0,-3.922 3.546,-6.447 9.294,-6.715c3.6,-0.161 9.616,-0.054 9.616,-0.054l0.054,4.137c0.003,5.103 -4.671,8.864 -11.064,8.864z" data-name="Path 262" id="Path_262" transform="translate(0, -0.278)"/>
  </g>
  <text fill="#ffffff" font-family="serif" font-size="24" id="svg_1" stroke="#000000" stroke-width="0" text-anchor="middle" transform="matrix(2.07604, 0, 0, 1.14671, -1018.23, -0.692561)" x="541.855469" xml:space="preserve" y="30.040497">ARQuM</text>
 </g>
</svg>